<mxfile host="app.diagrams.net" modified="2020-12-31T09:06:08.684Z" agent="5.0 (Windows NT 10.0; Win64; x64) AppleWebKit/537.36 (KHTML, like Gecko) Chrome/87.0.4280.88 Safari/537.36" etag="govbZd79dUVLEn8K3HJj" version="14.1.3" type="github">
  <diagram id="kgpKYQtTHZ0yAKxKKP6v" name="Page-1">
    <mxGraphModel dx="1038" dy="580" grid="1" gridSize="10" guides="1" tooltips="1" connect="1" arrows="1" fold="1" page="1" pageScale="1" pageWidth="850" pageHeight="1100" math="0" shadow="0">
      <root>
        <mxCell id="0" />
        <mxCell id="1" parent="0" />
        <mxCell id="QYEWweFS5IUh5F_DVcRt-2" value=":Giao diện" style="shape=umlLifeline;perimeter=lifelinePerimeter;whiteSpace=wrap;html=1;container=1;collapsible=0;recursiveResize=0;outlineConnect=0;" vertex="1" parent="1">
          <mxGeometry x="360" y="40" width="100" height="520" as="geometry" />
        </mxCell>
        <mxCell id="QYEWweFS5IUh5F_DVcRt-7" value="" style="html=1;points=[];perimeter=orthogonalPerimeter;" vertex="1" parent="QYEWweFS5IUh5F_DVcRt-2">
          <mxGeometry x="45" y="90" width="10" height="250" as="geometry" />
        </mxCell>
        <mxCell id="QYEWweFS5IUh5F_DVcRt-10" value="Gọi trang đăng ký" style="edgeStyle=orthogonalEdgeStyle;html=1;align=left;spacingLeft=2;endArrow=block;rounded=0;entryX=1;entryY=0;" edge="1" parent="QYEWweFS5IUh5F_DVcRt-2">
          <mxGeometry relative="1" as="geometry">
            <mxPoint x="55" y="110" as="sourcePoint" />
            <Array as="points">
              <mxPoint x="80" y="110" />
            </Array>
            <mxPoint x="60" y="130" as="targetPoint" />
          </mxGeometry>
        </mxCell>
        <mxCell id="QYEWweFS5IUh5F_DVcRt-14" value="Gửi thông tin cho hệ thống" style="html=1;verticalAlign=bottom;endArrow=block;" edge="1" parent="QYEWweFS5IUh5F_DVcRt-2" target="QYEWweFS5IUh5F_DVcRt-3">
          <mxGeometry width="80" relative="1" as="geometry">
            <mxPoint x="60" y="210" as="sourcePoint" />
            <mxPoint x="140" y="210" as="targetPoint" />
          </mxGeometry>
        </mxCell>
        <mxCell id="QYEWweFS5IUh5F_DVcRt-3" value=":Server" style="shape=umlLifeline;perimeter=lifelinePerimeter;whiteSpace=wrap;html=1;container=1;collapsible=0;recursiveResize=0;outlineConnect=0;" vertex="1" parent="1">
          <mxGeometry x="640" y="40" width="100" height="520" as="geometry" />
        </mxCell>
        <mxCell id="QYEWweFS5IUh5F_DVcRt-13" value="" style="html=1;points=[];perimeter=orthogonalPerimeter;" vertex="1" parent="QYEWweFS5IUh5F_DVcRt-3">
          <mxGeometry x="45" y="180" width="10" height="150" as="geometry" />
        </mxCell>
        <mxCell id="QYEWweFS5IUh5F_DVcRt-16" value="Lưu thông tin đăng ký" style="edgeStyle=orthogonalEdgeStyle;html=1;align=left;spacingLeft=2;endArrow=block;rounded=0;entryX=1;entryY=0;" edge="1" parent="QYEWweFS5IUh5F_DVcRt-3">
          <mxGeometry relative="1" as="geometry">
            <mxPoint x="55" y="225" as="sourcePoint" />
            <Array as="points">
              <mxPoint x="80" y="225" />
            </Array>
            <mxPoint x="60" y="245" as="targetPoint" />
          </mxGeometry>
        </mxCell>
        <mxCell id="QYEWweFS5IUh5F_DVcRt-4" value="" style="shape=umlLifeline;participant=umlActor;perimeter=lifelinePerimeter;whiteSpace=wrap;html=1;container=1;collapsible=0;recursiveResize=0;verticalAlign=top;spacingTop=36;outlineConnect=0;" vertex="1" parent="1">
          <mxGeometry x="140" y="40" width="20" height="520" as="geometry" />
        </mxCell>
        <mxCell id="QYEWweFS5IUh5F_DVcRt-6" value="" style="html=1;points=[];perimeter=orthogonalPerimeter;" vertex="1" parent="QYEWweFS5IUh5F_DVcRt-4">
          <mxGeometry x="5" y="70" width="10" height="270" as="geometry" />
        </mxCell>
        <mxCell id="QYEWweFS5IUh5F_DVcRt-5" value="Người dùng" style="text;align=center;fontStyle=1;verticalAlign=middle;spacingLeft=3;spacingRight=3;strokeColor=none;rotatable=0;points=[[0,0.5],[1,0.5]];portConstraint=eastwest;" vertex="1" parent="1">
          <mxGeometry x="110" y="80" width="80" height="26" as="geometry" />
        </mxCell>
        <mxCell id="QYEWweFS5IUh5F_DVcRt-8" value="Chọn vào chức năng đăng ký tài khoản" style="html=1;verticalAlign=bottom;endArrow=block;" edge="1" parent="1" target="QYEWweFS5IUh5F_DVcRt-2">
          <mxGeometry width="80" relative="1" as="geometry">
            <mxPoint x="160" y="140" as="sourcePoint" />
            <mxPoint x="240" y="140" as="targetPoint" />
          </mxGeometry>
        </mxCell>
        <mxCell id="QYEWweFS5IUh5F_DVcRt-11" value="Yêu cầu người dùng nhập thông tin đăng ký" style="html=1;verticalAlign=bottom;endArrow=open;dashed=1;endSize=8;" edge="1" parent="1" source="QYEWweFS5IUh5F_DVcRt-2">
          <mxGeometry relative="1" as="geometry">
            <mxPoint x="260" y="190" as="sourcePoint" />
            <mxPoint x="160" y="190" as="targetPoint" />
          </mxGeometry>
        </mxCell>
        <mxCell id="QYEWweFS5IUh5F_DVcRt-12" value="Nhập thông tin đăng ký" style="html=1;verticalAlign=bottom;endArrow=block;" edge="1" parent="1" target="QYEWweFS5IUh5F_DVcRt-2">
          <mxGeometry width="80" relative="1" as="geometry">
            <mxPoint x="160" y="230" as="sourcePoint" />
            <mxPoint x="250" y="230" as="targetPoint" />
          </mxGeometry>
        </mxCell>
        <mxCell id="QYEWweFS5IUh5F_DVcRt-17" value="Đi đến trang home" style="html=1;verticalAlign=bottom;endArrow=block;" edge="1" parent="1" source="QYEWweFS5IUh5F_DVcRt-3" target="QYEWweFS5IUh5F_DVcRt-2">
          <mxGeometry width="80" relative="1" as="geometry">
            <mxPoint x="610" y="360" as="sourcePoint" />
            <mxPoint x="530" y="360" as="targetPoint" />
            <Array as="points">
              <mxPoint x="580" y="350" />
            </Array>
          </mxGeometry>
        </mxCell>
      </root>
    </mxGraphModel>
  </diagram>
</mxfile>
